<svg width="115" height="77" viewBox="0 0 115 77" fill="none" xmlns="http://www.w3.org/2000/svg">
<path d="M39.8326 40.0413L36.1975 46.2898L32.5624 52.5384L28.9686 46.2592L25.3842 39.9966L32.6131 40.0272L39.8326 40.0413Z" fill="#73D6F7"/>
<path d="M54.297 40.0776L50.6619 46.3262L47.0268 52.5748L43.433 46.2955L39.8486 40.033L47.068 40.047L54.297 40.0776Z" fill="#73D6F7"/>
<path d="M48.6742 24.4426L45.0391 30.6912L41.404 36.9397L37.8101 30.6605L34.2258 24.3979L41.4547 24.4286L48.6742 24.4426Z" fill="#6581E8"/>
<path d="M32.569 52.5125L39.798 52.5431L47.0269 52.5738L43.433 46.2945L39.8487 40.032L36.2041 46.2639L32.569 52.5125Z" fill="#82E6EB"/>
<path d="M47.0272 52.5734L54.2562 52.604L61.4756 52.6181L57.8913 46.3555L54.2974 40.0763L50.6623 46.3248L47.0272 52.5734Z" fill="#82E6EB"/>
<path d="M26.9562 36.8946L34.1851 36.9252L41.414 36.9558L37.8202 30.6766L34.2263 24.3974L30.5912 30.646L26.9562 36.8946Z" fill="#87A1FA"/>
<path d="M34.2262 24.3976L41.4551 24.4283L48.684 24.4589L45.0902 18.1797L41.4964 11.9005L37.8613 18.1491L34.2262 24.3976Z" fill="#567BCC"/>
<path d="M18.1042 52.4776L21.7559 46.2195L25.3839 39.997L28.9683 46.2596L32.5621 52.5388L25.3498 52.4987L18.1042 52.4776Z" fill="#72B4F2"/>
<path d="M75.1675 36.9454L78.8025 30.6969L82.4376 24.4483L86.0315 30.7275L89.6158 36.9901L82.3869 36.9595L75.1675 36.9454Z" fill="#73D6F7"/>
<path d="M60.7026 36.9091L64.3377 30.6605L67.9728 24.4119L71.5667 30.6911L75.151 36.9537L67.9316 36.9397L60.7026 36.9091Z" fill="#73D6F7"/>
<path d="M66.3259 52.5442L69.961 46.2956L73.596 40.0471L77.1899 46.3263L80.7742 52.5889L73.5453 52.5582L66.3259 52.5442Z" fill="#6581E8"/>
<path d="M82.4306 24.4743L75.2017 24.4437L67.9727 24.4131L71.5666 30.6923L75.1509 36.9549L78.7955 30.7229L82.4306 24.4743Z" fill="#82E6EB"/>
<path d="M67.9728 24.4131L60.7439 24.3824L53.5244 24.3684L57.1088 30.631L60.7026 36.9102L64.3377 30.6616L67.9728 24.4131Z" fill="#82E6EB"/>
<path d="M88.0439 40.0923L80.8149 40.0616L73.586 40.031L77.1798 46.3102L80.7737 52.5894L84.4088 46.3408L88.0439 40.0923Z" fill="#87A1FA"/>
<path d="M80.7738 52.5892L73.5449 52.5586L66.316 52.5279L69.9098 58.8071L73.5037 65.0863L77.1387 58.8378L80.7738 52.5892Z" fill="#567BCC"/>
<path d="M96.8958 24.5091L93.2441 30.7672L89.6161 36.9896L86.0318 30.7271L82.4379 24.4479L89.6503 24.488L96.8958 24.5091Z" fill="#72B4F2"/>
</svg>
